PathFileType	4	(X/Y/Z)	OpenSim_Sub10_EMGBaseline_Magnet.trc
DataRate	CameraRate	NumFrames	NumMarkers	Units	OrigDataRate	OrigDataStartFrame	OrigNumFrames
100	100	40	8	m	100	6151	8201
Frame#	Time	torso_imu_offset_imu	pelvis_imu_offset_imu	tibia_r_imu_offset_imu	femur_r_imu_offset_imu	tibia_l_imu_offset_imu	femur_l_imu_offset_imu	toes_r_imu_offset_imu	toes_l_imu_offset_imu
				X1	Y1	Z1	X2	Y2	Z2	X3	Y3	Z3	X4	Y4	Z4	X5	Y5	Z5	X6	Y6	Z6	X7	Y7	Z7	X8		Y8	Z8	

6151	61.50000000	-0.93310500	-0.12475600	0.10913100	-0.68627900	0.15966800	-0.63208000	-0.70947300	-0.54736300	-0.08203100	-0.82080100	-0.21289100	0.06469700	-0.30932600	0.70678700	0.30981400	-0.69848600	0.26171900	0.38061500	-0.62426800	-0.27148400	-0.38696300	-0.81787100	-0.18212900	0.10156200
6152	61.51000000	-0.92895500	-0.12475600	0.11377000	-0.68408200	0.15356400	-0.63183600	-0.70727500	-0.54516600	-0.08227500	-0.81616200	-0.22314500	0.06738300	-0.28710900	0.71557600	0.30908200	-0.71093800	0.23974600	0.37402300	-0.62402300	-0.27758800	-0.38476600	-0.80249000	-0.17553700	0.15332000
6153	61.52000000	-0.93310500	-0.12475600	0.10913100	-0.67944300	0.14917000	-0.63159200	-0.71142600	-0.55151400	-0.09082000	-0.81591800	-0.23754900	0.06787100	-0.26269500	0.72460900	0.30615200	-0.71484400	0.22900400	0.37182600	-0.62597700	-0.28173800	-0.38671900	-0.78906200	-0.17138700	0.19824200
6154	61.53000000	-0.93530300	-0.12255900	0.10253900	-0.67944300	0.14526400	-0.64306600	-0.70922900	-0.55151400	-0.09301800	-0.81152300	-0.24585000	0.06811500	-0.24511700	0.73120100	0.30566400	-0.72534200	0.21362300	0.36767600	-0.62597700	-0.28588900	-0.38867200	-0.77587900	-0.16503900	0.25000000
6155	61.54000000	-0.92456100	-0.12475600	0.10058600	-0.67285200	0.14526400	-0.63842800	-0.70068400	-0.55566400	-0.09521500	-0.81323200	-0.25830100	0.07543900	-0.22509800	0.73999000	0.31152300	-0.73364300	0.19384800	0.35888700	-0.61962900	-0.28564500	-0.38867200	-0.76293900	-0.15185500	0.29272500
6156	61.55000000	-0.92871100	-0.13110400	0.09838900	-0.67724600	0.14306600	-0.64306600	-0.70263700	-0.55761700	-0.10180700	-0.80029300	-0.26440400	0.06884800	-0.20483400	0.73559600	0.31616200	-0.74194300	0.17871100	0.34790000	-0.62182600	-0.28564500	-0.38452100	-0.74975600	-0.14770500	0.32202100
6157	61.56000000	-0.92871100	-0.12670900	0.11157200	-0.67724600	0.14526400	-0.64770500	-0.70019500	-0.56811500	-0.09472700	-0.80004900	-0.27270500	0.07153300	-0.18066400	0.74438500	0.31079100	-0.74389600	0.17211900	0.34790000	-0.62573200	-0.29199200	-0.38452100	-0.73193400	-0.14331100	0.35131800
6158	61.57000000	-0.93090800	-0.12890600	0.10937500	-0.67700200	0.13891600	-0.64526400	-0.69189500	-0.57031200	-0.09252900	-0.79785200	-0.27685500	0.07617200	-0.16479500	0.74658200	0.32397500	-0.75219700	0.15673800	0.33691400	-0.62158200	-0.29199200	-0.38452100	-0.72094700	-0.13452100	0.36914100
6159	61.58000000	-0.92895500	-0.12475600	0.10693400	-0.67700200	0.13891600	-0.64990200	-0.69384800	-0.57226600	-0.07910200	-0.79760700	-0.28930700	0.07666000	-0.15820300	0.74902300	0.31250000	-0.75830100	0.14160200	0.33032200	-0.62158200	-0.29199200	-0.38037100	-0.71899400	-0.12793000	0.37817400
6160	61.59000000	-0.93530300	-0.12695300	0.11816400	-0.67041000	0.13256800	-0.64721700	-0.68945300	-0.57666000	-0.07202100	-0.79736300	-0.29760700	0.07690400	-0.13842800	0.75781200	0.30517600	-0.76269500	0.14135700	0.33032200	-0.62768600	-0.29394500	-0.38452100	-0.72412100	-0.11035200	0.36694300
6161	61.60000000	-0.92675800	-0.12670900	0.12036100	-0.67041000	0.13476600	-0.64502000	-0.68505900	-0.58496100	-0.06958000	-0.78881800	-0.30371100	0.07031200	-0.12963900	0.76220700	0.29589800	-0.76464800	0.13281200	0.31909200	-0.62353500	-0.29199200	-0.37817400	-0.73364300	-0.09912100	0.35546900
6162	61.61000000	-0.93115200	-0.12255900	0.11792000	-0.67236300	0.13061500	-0.64941400	-0.68725600	-0.58081100	-0.06298800	-0.78637700	-0.30981400	0.07055700	-0.12109400	0.77099600	0.27734400	-0.76855500	0.11962900	0.31933600	-0.61938500	-0.29174800	-0.38452100	-0.74316400	-0.08374000	0.33960000
6163	61.62000000	-0.92919900	-0.11621100	0.12207000	-0.67041000	0.13256800	-0.65429700	-0.67871100	-0.58691400	-0.05615200	-0.78857400	-0.31420900	0.07543900	-0.11010700	0.77783200	0.25903300	-0.77490200	0.10864300	0.30810500	-0.62353500	-0.29614300	-0.37402300	-0.75048800	-0.06835900	0.32177700
6164	61.63000000	-0.92919900	-0.11621100	0.12207000	-0.67456100	0.13061500	-0.65185500	-0.67431600	-0.59545900	-0.06469700	-0.77954100	-0.33056600	0.07836900	-0.11499000	0.78662100	0.22973600	-0.77905300	0.10205100	0.29931600	-0.62768600	-0.29394500	-0.37402300	-0.75756800	-0.05712900	0.29687500
6165	61.64000000	-0.93335000	-0.11621100	0.12207000	-0.67016600	0.12426800	-0.65625000	-0.67846700	-0.59326200	-0.06713900	-0.77124000	-0.33252000	0.07836900	-0.11743200	0.79101600	0.21386700	-0.78295900	0.08691400	0.29272500	-0.62353500	-0.29589800	-0.37817400	-0.77148400	-0.04394500	0.27661100
6166	61.65000000	-0.93139600	-0.11425800	0.12646500	-0.67431600	0.12426800	-0.65161100	-0.67846700	-0.59741200	-0.06689500	-0.76879900	-0.34301800	0.07885700	-0.13549800	0.79345700	0.18701200	-0.78930700	0.08032200	0.28833000	-0.62548800	-0.30004900	-0.37817400	-0.77832000	-0.04174800	0.24511700
6167	61.66000000	-0.93139600	-0.10986300	0.13281200	-0.67407200	0.11596700	-0.66064500	-0.67382800	-0.60571300	-0.07104500	-0.76660200	-0.34912100	0.08593800	-0.15112300	0.79345700	0.17163100	-0.78442400	0.06298800	0.28613300	-0.62548800	-0.29809600	-0.36987300	-0.78515600	-0.03710900	0.21582000
6168	61.67000000	-0.93359400	-0.10791000	0.12622100	-0.67187500	0.11157200	-0.66040000	-0.67187500	-0.60571300	-0.07788100	-0.76635700	-0.35546900	0.07934600	-0.16699200	0.79565400	0.15600600	-0.79492200	0.04980500	0.27514600	-0.62768600	-0.29418900	-0.37207000	-0.79418900	-0.03710900	0.17993200
6169	61.68000000	-0.93579100	-0.10986300	0.13501000	-0.66748000	0.10961900	-0.66259800	-0.67358400	-0.61206100	-0.07983400	-0.75976600	-0.36352500	0.08422900	-0.18896500	0.78466800	0.14794900	-0.79248000	0.04126000	0.27734400	-0.62158200	-0.29614300	-0.36352500	-0.80542000	-0.03686500	0.15283200
6170	61.69000000	-0.94018600	-0.10376000	0.13256800	-0.66503900	0.10131800	-0.66235400	-0.66967800	-0.60571300	-0.08447300	-0.75537100	-0.37182600	0.07983400	-0.21142600	0.78466800	0.14160200	-0.79638700	0.02587900	0.27539100	-0.62353500	-0.29809600	-0.36767600	-0.80542000	-0.03442400	0.11474600
6171	61.70000000	-0.93164100	-0.10351600	0.13476600	-0.67114300	0.09277300	-0.66674800	-0.66503900	-0.62036100	-0.09301800	-0.75512700	-0.38232400	0.08032200	-0.24243200	0.77783200	0.14453100	-0.79614300	0.01953100	0.27099600	-0.62133800	-0.29809600	-0.36767600	-0.80542000	-0.03418000	0.07421900
6172	61.71000000	-0.93164100	-0.10156200	0.13256800	-0.66503900	0.09912100	-0.66455100	-0.66528300	-0.61401400	-0.08862300	-0.74633800	-0.39038100	0.07373000	-0.27563500	0.76464800	0.14794900	-0.79565400	0.00854500	0.25976600	-0.61303700	-0.29589800	-0.36352500	-0.81445300	-0.03637700	0.04492200
6173	61.72000000	-0.93383800	-0.10156200	0.13696300	-0.66674800	0.09082000	-0.66430700	-0.66308600	-0.61401400	-0.09106400	-0.74609400	-0.39868200	0.07177700	-0.31543000	0.74487300	0.15161100	-0.79980500	-0.00244100	0.27343800	-0.61523400	-0.29809600	-0.35937500	-0.81201200	-0.03833000	0.00683600
6174	61.73000000	-0.93383800	-0.09936500	0.13452100	-0.66235400	0.08667000	-0.67578100	-0.65673800	-0.62036100	-0.09521500	-0.73974600	-0.40698200	0.07226600	-0.33960000	0.73144500	0.15698200	-0.79711900	-0.01757800	0.27368200	-0.61328100	-0.29394500	-0.36572300	-0.80981400	-0.04028300	-0.03369100
6175	61.74000000	-0.93383800	-0.09936500	0.13671900	-0.66430700	0.07812500	-0.67309600	-0.66308600	-0.61816400	-0.09521500	-0.73315400	-0.41308600	0.07690400	-0.38159200	0.71386700	0.15625000	-0.80127000	-0.01977500	0.26025400	-0.61303700	-0.29589800	-0.36767600	-0.81420900	-0.04003900	-0.06958000
6176	61.75000000	-0.93212900	-0.09301800	0.13867200	-0.65991200	0.07397500	-0.67065400	-0.66064500	-0.62451200	-0.09741200	-0.72900400	-0.41503900	0.07251000	-0.41650400	0.68750000	0.16015600	-0.80102500	-0.02612300	0.27368200	-0.61108400	-0.29589800	-0.36157200	-0.80981400	-0.04199200	-0.10791000
6177	61.76000000	-0.92773400	-0.09521500	0.13891600	-0.66430700	0.07617200	-0.67773400	-0.66064500	-0.62451200	-0.09960900	-0.72460900	-0.42334000	0.07275400	-0.45166000	0.66748000	0.16381800	-0.79858400	-0.03930700	0.27612300	-0.60668900	-0.30004900	-0.35717800	-0.80737300	-0.04834000	-0.15283200
6178	61.77000000	-0.93408200	-0.09301800	0.14086900	-0.65991200	0.07617200	-0.67529300	-0.66284200	-0.62451200	-0.09741200	-0.72216800	-0.43579100	0.07788100	-0.48657200	0.63671900	0.17480500	-0.79638700	-0.03710900	0.26928700	-0.60083000	-0.29370100	-0.36352500	-0.79589800	-0.05468800	-0.19091800
6179	61.78000000	-0.93847700	-0.09521500	0.13671900	-0.66430700	0.07617200	-0.67773400	-0.65844700	-0.62866200	-0.10839800	-0.71557600	-0.44189500	0.07348600	-0.52807600	0.60351600	0.17700200	-0.79614300	-0.04345700	0.26489300	-0.59643600	-0.29565400	-0.36352500	-0.78710900	-0.04980500	-0.23144500
6180	61.79000000	-0.93188500	-0.09521500	0.14331100	-0.65966800	0.06567400	-0.67724600	-0.65625000	-0.63281200	-0.11499000	-0.71118200	-0.44824200	0.08300800	-0.55835000	0.57055700	0.18554700	-0.80273400	-0.04565400	0.26489300	-0.59448200	-0.29370100	-0.36547900	-0.77539100	-0.06054700	-0.27392600
6181	61.80000000	-0.93212900	-0.09301800	0.14306600	-0.65966800	0.06982400	-0.67968800	-0.65210000	-0.63061500	-0.11938500	-0.70239300	-0.46044900	0.07666000	-0.59326200	0.53320300	0.18798800	-0.80029300	-0.04785200	0.26953100	-0.59033200	-0.29565400	-0.36547900	-0.75708000	-0.07324200	-0.31665000
6182	61.81000000	-0.93627900	-0.09106400	0.15185500	-0.66186500	0.06982400	-0.67504900	-0.64770500	-0.63281200	-0.12158200	-0.70434600	-0.46460000	0.07446300	-0.62768600	0.49340800	0.18579100	-0.79809600	-0.04785200	0.26953100	-0.58813500	-0.29956100	-0.37377900	-0.74121100	-0.07959000	-0.34814500
6183	61.82000000	-0.93212900	-0.09082000	0.14086900	-0.65991200	0.07397500	-0.67529300	-0.64941400	-0.64111300	-0.13012700	-0.69580100	-0.47094700	0.07934600	-0.64892600	0.45166000	0.17041000	-0.79834000	-0.04126000	0.26269500	-0.58178700	-0.30151400	-0.37377900	-0.71850600	-0.08593800	-0.38623000
6184	61.83000000	-0.93847700	-0.08886700	0.14526400	-0.66626000	0.07617200	-0.67529300	-0.64331100	-0.64111300	-0.13696300	-0.68945300	-0.47485400	0.08398400	-0.67919900	0.41430700	0.16577100	-0.79418900	-0.03906200	0.27392600	-0.57763700	-0.30127000	-0.39038100	-0.69799800	-0.09643600	-0.41748000
6185	61.84000000	-0.93408200	-0.09301800	0.14526400	-0.66626000	0.07397500	-0.67065400	-0.64306600	-0.64306600	-0.13452100	-0.67871100	-0.48730500	0.08471700	-0.70068400	0.38134800	0.15869100	-0.79663100	-0.03051800	0.26709000	-0.57324200	-0.30542000	-0.39648400	-0.67285200	-0.11377000	-0.44433600
6186	61.85000000	-0.93188500	-0.09521500	0.14550800	-0.66430700	0.08032200	-0.67089800	-0.64526400	-0.64306600	-0.14355500	-0.68066400	-0.49365200	0.08252000	-0.71752900	0.34838900	0.14282200	-0.79443400	-0.02832000	0.27148400	-0.57324200	-0.30932600	-0.39843800	-0.65210000	-0.12890600	-0.47363300
6187	61.86000000	-0.93408200	-0.09301800	0.14526400	-0.66210900	0.08032200	-0.67089800	-0.63256800	-0.64721700	-0.14111300	-0.68066400	-0.49340800	0.07788100	-0.72802700	0.32641600	0.13501000	-0.79492200	-0.01733400	0.27124000	-0.56884800	-0.31127900	-0.40893600	-0.62695300	-0.14379900	-0.49804700
6188	61.87000000	-0.93432600	-0.09106400	0.14746100	-0.66406200	0.07397500	-0.67065400	-0.63037100	-0.65356400	-0.14550800	-0.66772500	-0.50390600	0.08081100	-0.73852500	0.30004900	0.13208000	-0.79736300	-0.00439500	0.26001000	-0.57080100	-0.31738300	-0.41308600	-0.61059600	-0.15893600	-0.52514600
6189	61.88000000	-0.93212900	-0.09301800	0.14526400	-0.67504900	0.08007800	-0.66381800	-0.62988300	-0.66186500	-0.14965800	-0.66772500	-0.50366200	0.07373000	-0.75317400	0.26928700	0.12475600	-0.79980500	0.00195300	0.26001000	-0.57080100	-0.32348600	-0.42334000	-0.59960900	-0.15673800	-0.53857400
6190	61.89000000	-0.92993200	-0.09301800	0.14306600	-0.67285200	0.08032200	-0.67089800	-0.61938500	-0.66406200	-0.15185500	-0.66943400	-0.51611300	0.07202100	-0.75293000	0.25390600	0.11425800	-0.80688500	0.01269500	0.25756800	-0.57055700	-0.32763700	-0.42749000	-0.58154300	-0.15869100	-0.55419900
